<?xml version="1.0" encoding="UTF-8"?>
<svg xmlns="http://www.w3.org/2000/svg" xmlns:xlink="http://www.w3.org/1999/xlink" width="375pt" height="374.999991pt" viewBox="0 0 375 374.999991" version="1.2">
<defs>
<clipPath id="clip1">
  <path d="M 19.625 19.773438 L 355.375 19.773438 L 355.375 354.824219 L 19.625 354.824219 Z M 19.625 19.773438 "/>
</clipPath>
<clipPath id="clip2">
  <path d="M 0.140625 20 L 374.859375 20 L 374.859375 354.824219 L 0.140625 354.824219 Z M 0.140625 20 "/>
</clipPath>
</defs>
<g id="surface1">
<g clip-path="url(#clip1)" clip-rule="nonzero">
<path style=" stroke:none;fill-rule:nonzero;fill:rgb(29.019165%,31.369019%,67.059326%);fill-opacity:1;" d="M 355.238281 187.308594 C 355.238281 279.839844 280.136719 354.84375 187.5 354.84375 C 94.863281 354.84375 19.761719 279.839844 19.761719 187.308594 C 19.761719 94.78125 94.863281 19.769531 187.5 19.769531 C 280.136719 19.769531 355.238281 94.78125 355.238281 187.308594 "/>
</g>
<g clip-path="url(#clip2)" clip-rule="nonzero">
<path style=" stroke:none;fill-rule:nonzero;fill:rgb(93.328857%,11.759949%,44.309998%);fill-opacity:1;" d="M 187.5 335.246094 C 199.65625 335.246094 212.742188 338.769531 225.398438 342.179688 C 245.359375 347.554688 264.214844 352.632812 278.351562 344.464844 C 293.117188 335.929688 298.375 315.816406 303.457031 296.363281 C 306.6875 284.019531 310.023438 271.257812 315.804688 261.273438 C 321.320312 251.746094 330.507812 242.820312 339.394531 234.183594 C 354.027344 219.960938 369.160156 205.253906 369.160156 187.308594 C 369.160156 169.367188 354.027344 154.65625 339.394531 140.433594 C 330.507812 131.796875 321.320312 122.867188 315.804688 113.34375 C 310.023438 103.363281 306.6875 90.597656 303.457031 78.253906 C 298.375 58.800781 293.117188 38.683594 278.351562 30.152344 C 264.214844 21.984375 245.359375 27.0625 225.398438 32.441406 C 212.742188 35.847656 199.65625 39.371094 187.5 39.371094 C 175.34375 39.371094 162.257812 35.847656 149.601562 32.441406 C 129.640625 27.0625 110.78125 21.984375 96.648438 30.152344 C 81.882812 38.683594 76.625 58.800781 71.539062 78.253906 C 68.3125 90.597656 64.976562 103.363281 59.195312 113.34375 C 53.679688 122.867188 44.492188 131.796875 35.605469 140.433594 C 20.972656 154.65625 5.839844 169.367188 5.839844 187.308594 C 5.839844 205.253906 20.972656 219.964844 35.605469 234.183594 C 44.492188 242.820312 53.679688 251.746094 59.195312 261.273438 C 64.976562 271.257812 68.3125 284.019531 71.539062 296.363281 C 76.625 315.816406 81.882812 335.929688 96.648438 344.464844 C 110.78125 352.632812 129.636719 347.554688 149.601562 342.179688 C 162.257812 338.769531 175.34375 335.246094 187.5 335.246094 Z M 260.519531 354.398438 C 248.882812 354.398438 236.269531 351.003906 223.914062 347.675781 C 211.617188 344.363281 198.902344 340.9375 187.5 340.9375 C 176.097656 340.9375 163.378906 344.363281 151.085938 347.675781 C 130.875 353.117188 109.980469 358.746094 93.792969 349.390625 C 76.964844 339.667969 71.402344 318.386719 66.027344 297.804688 C 62.894531 285.824219 59.65625 273.441406 54.261719 264.125 C 49.136719 255.28125 40.636719 247.015625 31.632812 238.265625 C 16.152344 223.21875 0.140625 207.65625 0.140625 187.308594 C 0.140625 166.960938 16.152344 151.402344 31.632812 136.351562 C 40.636719 127.601562 49.136719 119.339844 54.261719 110.492188 C 59.65625 101.179688 62.894531 88.792969 66.027344 76.816406 C 71.402344 56.230469 76.964844 34.949219 93.792969 25.226562 C 109.980469 15.871094 130.875 21.5 151.085938 26.941406 C 163.378906 30.253906 176.097656 33.679688 187.5 33.679688 C 198.902344 33.679688 211.617188 30.253906 223.914062 26.941406 C 244.125 21.5 265.015625 15.871094 281.207031 25.226562 C 298.03125 34.949219 303.597656 56.230469 308.972656 76.816406 C 312.105469 88.792969 315.339844 101.179688 320.734375 110.492188 C 325.859375 119.339844 334.363281 127.601562 343.367188 136.351562 C 358.847656 151.402344 374.859375 166.960938 374.859375 187.308594 C 374.859375 207.65625 358.847656 223.21875 343.367188 238.265625 C 334.363281 247.015625 325.859375 255.28125 320.734375 264.125 C 315.339844 273.441406 312.105469 285.824219 308.972656 297.804688 C 303.597656 318.386719 298.03125 339.667969 281.207031 349.390625 C 274.914062 353.027344 267.914062 354.398438 260.519531 354.398438 "/>
</g>
<path style=" stroke:none;fill-rule:nonzero;fill:rgb(93.328857%,11.759949%,44.309998%);fill-opacity:1;" d="M 187.5 38.101562 C 105.128906 38.101562 38.113281 105.035156 38.113281 187.308594 C 38.113281 269.582031 105.128906 336.515625 187.5 336.515625 C 269.871094 336.515625 336.882812 269.582031 336.882812 187.308594 C 336.882812 105.035156 269.871094 38.101562 187.5 38.101562 Z M 187.5 342.210938 C 101.984375 342.210938 32.414062 272.722656 32.414062 187.308594 C 32.414062 101.898438 101.984375 32.40625 187.5 32.40625 C 273.015625 32.40625 342.585938 101.898438 342.585938 187.308594 C 342.585938 272.722656 273.015625 342.210938 187.5 342.210938 "/>
<path style=" stroke:none;fill-rule:nonzero;fill:rgb(100%,100%,100%);fill-opacity:1;" d="M 325.621094 187.308594 C 325.621094 263.5 263.777344 325.261719 187.5 325.261719 C 111.21875 325.261719 49.378906 263.5 49.378906 187.308594 C 49.378906 111.121094 111.21875 49.355469 187.5 49.355469 C 263.777344 49.355469 325.621094 111.121094 325.621094 187.308594 "/>
<path style=" stroke:none;fill-rule:nonzero;fill:rgb(31.759644%,76.469421%,59.21936%);fill-opacity:1;" d="M 320.082031 187.308594 C 320.082031 260.445312 260.722656 319.738281 187.5 319.738281 C 114.273438 319.738281 54.914062 260.445312 54.914062 187.308594 C 54.914062 114.171875 114.273438 54.882812 187.5 54.882812 C 260.722656 54.882812 320.082031 114.171875 320.082031 187.308594 "/>
<path style=" stroke:none;fill-rule:nonzero;fill:rgb(9.408569%,8.628845%,14.898682%);fill-opacity:1;" d="M 256.5625 222.542969 C 250 247.128906 255.78125 272.097656 270.09375 290.898438 C 300.558594 266.632812 320.082031 229.253906 320.082031 187.308594 C 320.082031 179.757812 319.441406 172.359375 318.226562 165.15625 C 289.3125 170.714844 264.652344 192.214844 256.5625 222.542969 Z M 213.132812 180.195312 C 204.949219 210.851562 173.4375 229.082031 142.738281 220.910156 C 112.042969 212.742188 93.789062 181.261719 101.96875 150.601562 C 110.152344 119.941406 141.667969 101.710938 172.363281 109.882812 C 203.058594 118.054688 221.3125 149.53125 213.132812 180.195312 "/>
<path style=" stroke:none;fill-rule:nonzero;fill:rgb(29.019165%,31.369019%,67.059326%);fill-opacity:1;" d="M 111.714844 172.441406 L 156.058594 123.550781 C 159.632812 119.609375 166.171875 121.351562 167.308594 126.546875 L 181.40625 190.992188 C 182.453125 195.777344 178.0625 199.96875 173.324219 198.707031 L 114.882812 183.152344 C 110.148438 181.890625 108.425781 176.070312 111.714844 172.441406 "/>
<path style=" stroke:none;fill-rule:nonzero;fill:rgb(100%,100%,100%);fill-opacity:1;" d="M 172.925781 172.179688 C 173.011719 171.855469 173.03125 171.53125 172.984375 171.214844 C 172.933594 170.898438 172.832031 170.605469 172.671875 170.332031 C 172.515625 170.066406 172.304688 169.832031 172.050781 169.628906 C 171.792969 169.429688 171.503906 169.289062 171.179688 169.203125 L 170.390625 169 L 169.160156 173.722656 L 169.945312 173.925781 C 170.273438 174.011719 170.597656 174.03125 170.914062 173.984375 C 171.234375 173.9375 171.53125 173.832031 171.800781 173.671875 C 172.070312 173.515625 172.304688 173.308594 172.503906 173.054688 C 172.703125 172.796875 172.84375 172.507812 172.925781 172.179688 Z M 174.503906 172.589844 C 174.410156 172.953125 174.273438 173.292969 174.09375 173.601562 C 173.910156 173.914062 173.695312 174.191406 173.449219 174.4375 C 173.199219 174.683594 172.925781 174.894531 172.625 175.074219 C 172.324219 175.25 172.003906 175.390625 171.664062 175.484375 C 171.328125 175.578125 170.976562 175.632812 170.621094 175.636719 C 170.261719 175.644531 169.898438 175.601562 169.535156 175.507812 L 167.160156 174.886719 L 169.214844 167.007812 L 171.589844 167.625 C 171.953125 167.722656 172.289062 167.859375 172.597656 168.042969 C 172.914062 168.21875 173.191406 168.4375 173.4375 168.683594 C 173.6875 168.933594 173.898438 169.207031 174.078125 169.507812 C 174.253906 169.808594 174.386719 170.128906 174.484375 170.464844 C 174.582031 170.800781 174.628906 171.148438 174.640625 171.507812 C 174.644531 171.867188 174.597656 172.230469 174.503906 172.589844 Z M 166.054688 174.601562 L 160.648438 173.191406 L 162.699219 165.316406 L 168.109375 166.722656 L 167.695312 168.296875 L 163.871094 167.304688 L 163.460938 168.878906 L 166.046875 169.554688 L 165.636719 171.128906 L 163.046875 170.457031 L 162.636719 172.027344 L 166.464844 173.019531 Z M 154.746094 165.765625 C 154.828125 165.441406 154.972656 165.152344 155.171875 164.898438 C 155.371094 164.644531 155.605469 164.4375 155.875 164.28125 C 156.144531 164.121094 156.4375 164.019531 156.757812 163.96875 C 157.078125 163.917969 157.398438 163.9375 157.722656 164.019531 L 161.34375 164.960938 L 160.933594 166.539062 L 157.316406 165.597656 C 157.203125 165.566406 157.09375 165.5625 156.988281 165.578125 C 156.882812 165.59375 156.789062 165.625 156.695312 165.679688 C 156.605469 165.730469 156.527344 165.800781 156.460938 165.886719 C 156.398438 165.972656 156.351562 166.066406 156.320312 166.179688 C 156.292969 166.285156 156.285156 166.398438 156.300781 166.503906 C 156.316406 166.609375 156.351562 166.710938 156.402344 166.800781 C 156.457031 166.890625 156.527344 166.96875 156.613281 167.03125 C 156.695312 167.097656 156.792969 167.144531 156.902344 167.171875 L 158.480469 167.585938 C 158.808594 167.667969 159.097656 167.808594 159.355469 168.007812 C 159.609375 168.203125 159.816406 168.4375 159.976562 168.710938 C 160.132812 168.980469 160.234375 169.273438 160.285156 169.59375 C 160.332031 169.914062 160.316406 170.238281 160.230469 170.5625 C 160.144531 170.890625 160.003906 171.175781 159.804688 171.429688 C 159.609375 171.683594 159.375 171.890625 159.105469 172.050781 C 158.832031 172.207031 158.539062 172.308594 158.21875 172.359375 C 157.898438 172.410156 157.574219 172.390625 157.25 172.308594 L 153.746094 171.398438 L 154.15625 169.820312 L 157.660156 170.730469 C 157.769531 170.761719 157.878906 170.765625 157.984375 170.75 C 158.089844 170.738281 158.1875 170.703125 158.277344 170.648438 C 158.367188 170.597656 158.445312 170.527344 158.511719 170.441406 C 158.578125 170.359375 158.625 170.261719 158.652344 170.148438 C 158.679688 170.042969 158.6875 169.933594 158.671875 169.828125 C 158.65625 169.722656 158.621094 169.621094 158.566406 169.53125 C 158.515625 169.445312 158.449219 169.367188 158.363281 169.300781 C 158.277344 169.238281 158.179688 169.191406 158.070312 169.160156 L 156.492188 168.75 C 156.164062 168.664062 155.875 168.523438 155.621094 168.324219 C 155.367188 168.125 155.164062 167.890625 155.003906 167.621094 C 154.84375 167.351562 154.742188 167.054688 154.691406 166.738281 C 154.640625 166.414062 154.660156 166.09375 154.746094 165.765625 Z M 147.863281 163.976562 C 147.949219 163.652344 148.089844 163.363281 148.289062 163.109375 C 148.488281 162.855469 148.726562 162.648438 148.996094 162.492188 C 149.265625 162.332031 149.558594 162.226562 149.878906 162.179688 C 150.195312 162.128906 150.519531 162.144531 150.84375 162.230469 L 154.464844 163.171875 L 154.054688 164.75 L 150.433594 163.808594 C 150.324219 163.777344 150.214844 163.773438 150.109375 163.785156 C 150.003906 163.804688 149.90625 163.835938 149.816406 163.890625 C 149.726562 163.941406 149.648438 164.011719 149.582031 164.097656 C 149.519531 164.179688 149.472656 164.277344 149.441406 164.390625 C 149.414062 164.496094 149.40625 164.605469 149.421875 164.714844 C 149.4375 164.820312 149.472656 164.921875 149.523438 165.011719 C 149.578125 165.097656 149.644531 165.179688 149.730469 165.242188 C 149.8125 165.308594 149.914062 165.355469 150.023438 165.382812 L 151.601562 165.796875 C 151.929688 165.878906 152.21875 166.019531 152.476562 166.214844 C 152.730469 166.414062 152.9375 166.648438 153.097656 166.917969 C 153.253906 167.191406 153.355469 167.484375 153.40625 167.804688 C 153.453125 168.121094 153.4375 168.445312 153.351562 168.773438 C 153.265625 169.097656 153.121094 169.386719 152.925781 169.640625 C 152.730469 169.894531 152.496094 170.101562 152.222656 170.257812 C 151.953125 170.417969 151.660156 170.519531 151.339844 170.570312 C 151.015625 170.621094 150.695312 170.601562 150.367188 170.519531 L 146.867188 169.605469 L 147.277344 168.03125 L 150.78125 168.941406 C 150.890625 168.972656 150.996094 168.976562 151.105469 168.960938 C 151.210938 168.945312 151.308594 168.914062 151.398438 168.859375 C 151.488281 168.808594 151.566406 168.738281 151.632812 168.652344 C 151.695312 168.566406 151.742188 168.472656 151.773438 168.363281 C 151.800781 168.25 151.804688 168.144531 151.789062 168.039062 C 151.777344 167.933594 151.742188 167.832031 151.6875 167.742188 C 151.636719 167.65625 151.566406 167.578125 151.484375 167.511719 C 151.398438 167.449219 151.296875 167.402344 151.191406 167.371094 L 149.613281 166.960938 C 149.285156 166.875 148.996094 166.734375 148.742188 166.535156 C 148.488281 166.335938 148.285156 166.097656 148.121094 165.832031 C 147.964844 165.5625 147.863281 165.265625 147.8125 164.949219 C 147.761719 164.625 147.78125 164.304688 147.863281 163.976562 Z M 145.871094 169.347656 L 140.464844 167.941406 L 142.519531 160.0625 L 147.925781 161.472656 L 147.511719 163.046875 L 143.683594 162.054688 L 143.273438 163.628906 L 145.863281 164.300781 L 145.457031 165.878906 L 142.863281 165.203125 L 142.453125 166.773438 L 146.28125 167.773438 Z M 139.644531 167.726562 L 134.121094 166.292969 L 136.179688 158.414062 L 137.757812 158.824219 L 136.113281 165.125 L 140.058594 166.152344 Z M 128.609375 163.175781 L 130.976562 163.789062 C 131.085938 163.820312 131.195312 163.824219 131.300781 163.808594 C 131.40625 163.792969 131.503906 163.761719 131.59375 163.707031 C 131.683594 163.65625 131.761719 163.585938 131.828125 163.5 C 131.890625 163.414062 131.9375 163.320312 131.96875 163.207031 C 131.996094 163.097656 132.003906 162.992188 131.988281 162.886719 C 131.972656 162.78125 131.9375 162.679688 131.882812 162.59375 C 131.832031 162.503906 131.761719 162.425781 131.679688 162.359375 C 131.59375 162.296875 131.496094 162.25 131.386719 162.21875 L 129.019531 161.601562 Z M 129.433594 160.027344 L 131.796875 160.644531 C 131.90625 160.667969 132.015625 160.679688 132.121094 160.664062 C 132.226562 160.644531 132.324219 160.609375 132.414062 160.558594 C 132.503906 160.507812 132.582031 160.4375 132.648438 160.351562 C 132.714844 160.261719 132.761719 160.167969 132.789062 160.054688 C 132.816406 159.945312 132.824219 159.839844 132.808594 159.730469 C 132.792969 159.628906 132.757812 159.53125 132.707031 159.4375 C 132.652344 159.351562 132.585938 159.273438 132.5 159.203125 C 132.417969 159.140625 132.320312 159.09375 132.207031 159.066406 L 129.84375 158.449219 Z M 133.546875 163.621094 C 133.460938 163.945312 133.316406 164.234375 133.117188 164.488281 C 132.917969 164.738281 132.683594 164.949219 132.417969 165.105469 C 132.148438 165.261719 131.851562 165.367188 131.53125 165.417969 C 131.214844 165.46875 130.890625 165.449219 130.566406 165.367188 L 126.621094 164.34375 L 128.675781 156.460938 L 132.617188 157.488281 C 132.945312 157.574219 133.234375 157.714844 133.492188 157.914062 C 133.742188 158.113281 133.949219 158.347656 134.109375 158.617188 C 134.265625 158.890625 134.371094 159.179688 134.421875 159.5 C 134.472656 159.820312 134.453125 160.140625 134.367188 160.464844 C 134.332031 160.613281 134.273438 160.757812 134.191406 160.902344 C 134.109375 161.042969 134.015625 161.179688 133.902344 161.300781 C 133.792969 161.425781 133.671875 161.53125 133.539062 161.621094 C 133.40625 161.714844 133.265625 161.78125 133.121094 161.824219 C 133.230469 161.925781 133.324219 162.054688 133.394531 162.199219 C 133.464844 162.34375 133.519531 162.496094 133.554688 162.660156 C 133.59375 162.820312 133.609375 162.984375 133.609375 163.152344 C 133.605469 163.316406 133.585938 163.472656 133.546875 163.621094 Z M 319.882812 194.601562 C 319.613281 199.46875 319.082031 204.265625 318.304688 208.972656 C 317.828125 208.945312 317.355469 208.933594 316.882812 208.960938 C 315.523438 209.046875 314.269531 209.347656 313.132812 209.871094 C 311.996094 210.394531 311.007812 211.097656 310.175781 211.984375 C 309.335938 212.871094 308.742188 213.914062 308.394531 215.109375 C 308.042969 216.308594 307.980469 217.496094 308.210938 218.675781 C 308.445312 219.859375 308.902344 220.957031 309.589844 221.972656 C 310.273438 222.988281 311.167969 223.902344 312.269531 224.707031 C 312.914062 225.171875 313.609375 225.566406 314.355469 225.902344 C 313.121094 229.945312 311.699219 233.90625 310.101562 237.777344 C 308.960938 237.605469 307.828125 237.539062 306.707031 237.609375 C 304.8125 237.722656 303.074219 238.125 301.480469 238.808594 C 299.886719 239.492188 298.515625 240.4375 297.363281 241.640625 C 296.210938 242.847656 295.394531 244.265625 294.914062 245.90625 C 294.4375 247.546875 294.359375 249.160156 294.695312 250.742188 C 295.03125 252.324219 295.695312 253.800781 296.691406 255.164062 C 297.46875 256.242188 298.429688 257.222656 299.554688 258.105469 C 297.226562 261.777344 294.714844 265.316406 292.050781 268.730469 C 291.867188 268.609375 291.6875 268.496094 291.511719 268.375 C 288.355469 266.210938 285.765625 263.730469 283.746094 260.929688 C 281.722656 258.128906 280.367188 255.109375 279.679688 251.867188 C 278.996094 248.621094 279.140625 245.34375 280.113281 242.027344 C 280.671875 240.113281 281.476562 238.316406 282.527344 236.640625 C 283.574219 234.957031 284.820312 233.460938 286.269531 232.136719 C 287.714844 230.8125 289.320312 229.679688 291.082031 228.730469 C 292.847656 227.777344 294.726562 227.074219 296.71875 226.617188 C 295.929688 225.382812 295.289062 224.046875 294.800781 222.605469 C 294.3125 221.164062 293.964844 219.6875 293.757812 218.183594 C 293.546875 216.671875 293.5 215.164062 293.605469 213.65625 C 293.710938 212.148438 293.96875 210.695312 294.382812 209.289062 C 295.222656 206.417969 296.65625 203.914062 298.671875 201.777344 C 300.691406 199.636719 303.09375 197.949219 305.875 196.699219 C 308.652344 195.449219 311.691406 194.71875 314.988281 194.492188 C 316.613281 194.382812 318.242188 194.421875 319.882812 194.601562 "/>
<path style=" stroke:none;fill-rule:nonzero;fill:rgb(100%,100%,100%);fill-opacity:1;" d="M 194.890625 233.230469 C 195.425781 234.535156 195.960938 235.835938 196.492188 237.140625 C 196.773438 237.832031 197.414062 238.320312 198.191406 238.105469 C 198.847656 237.925781 199.441406 237.105469 199.15625 236.40625 C 198.625 235.105469 198.089844 233.800781 197.554688 232.496094 C 197.273438 231.804688 196.636719 231.316406 195.859375 231.53125 C 195.207031 231.710938 194.609375 232.535156 194.890625 233.230469 Z M 255.585938 179.113281 C 256.597656 179.558594 257.609375 180.007812 258.621094 180.453125 C 259.304688 180.757812 260.105469 180.652344 260.511719 179.960938 C 260.855469 179.371094 260.699219 178.378906 260.015625 178.074219 C 259.003906 177.625 257.992188 177.175781 256.976562 176.726562 C 256.300781 176.425781 255.496094 176.53125 255.089844 177.222656 C 254.746094 177.808594 254.898438 178.808594 255.585938 179.113281 Z M 170.238281 64.648438 C 169.90625 66.628906 169.574219 68.605469 169.242188 70.585938 C 168.953125 72.324219 171.617188 73.070312 171.90625 71.320312 C 172.238281 69.339844 172.570312 67.359375 172.902344 65.382812 C 173.191406 63.644531 170.527344 62.894531 170.238281 64.648438 Z M 122.9375 83.257812 C 124.527344 88.597656 126.808594 93.632812 129.785156 98.34375 C 130.730469 99.839844 133.121094 98.457031 132.171875 96.953125 C 129.3125 92.433594 127.125 87.652344 125.601562 82.527344 C 125.09375 80.828125 122.425781 81.550781 122.9375 83.257812 Z M 88.273438 118.5 C 90.589844 120.644531 92.902344 122.789062 95.214844 124.933594 C 96.519531 126.140625 98.476562 124.191406 97.167969 122.980469 C 94.855469 120.839844 92.542969 118.695312 90.230469 116.550781 C 88.929688 115.34375 86.96875 117.289062 88.273438 118.5 Z M 68.976562 155.890625 C 72.945312 156.042969 76.90625 156.203125 80.875 156.355469 C 82.652344 156.425781 82.648438 153.667969 80.875 153.597656 C 76.90625 153.441406 72.945312 153.285156 68.976562 153.128906 C 67.199219 153.0625 67.203125 155.820312 68.976562 155.890625 Z M 68.566406 210.5 C 76.636719 206.71875 84.839844 203.265625 93.1875 200.148438 C 94.839844 199.53125 94.125 196.863281 92.453125 197.484375 C 83.882812 200.691406 75.457031 204.234375 67.171875 208.117188 C 65.5625 208.871094 66.964844 211.253906 68.566406 210.5 Z M 100.757812 256.195312 C 102.0625 254.210938 103.570312 252.417969 105.285156 250.773438 C 106.570312 249.542969 104.613281 247.59375 103.332031 248.824219 C 101.453125 250.625 99.800781 252.628906 98.371094 254.800781 C 97.394531 256.289062 99.785156 257.671875 100.757812 256.195312 Z M 121.378906 226.242188 C 118.640625 228.816406 116.167969 231.621094 113.921875 234.628906 C 112.855469 236.050781 115.253906 237.429688 116.304688 236.023438 C 118.410156 233.207031 120.769531 230.601562 123.332031 228.195312 C 124.628906 226.972656 122.671875 225.023438 121.378906 226.242188 Z M 157.996094 239.289062 C 156.394531 250.144531 155.449219 261.050781 155.191406 272.019531 C 155.152344 273.796875 157.914062 273.792969 157.957031 272.019531 C 158.203125 261.300781 159.09375 250.632812 160.660156 240.023438 C 160.914062 238.289062 158.253906 237.539062 157.996094 239.289062 Z M 200.664062 247.339844 C 202.613281 251.480469 204.5625 255.617188 206.515625 259.757812 C 207.273438 261.363281 209.65625 259.964844 208.898438 258.367188 C 206.949219 254.226562 205 250.085938 203.046875 245.949219 C 202.292969 244.34375 199.910156 245.742188 200.664062 247.339844 Z M 216.195312 203.578125 C 220.027344 207.003906 223.859375 210.433594 227.6875 213.863281 C 229.007812 215.042969 230.96875 213.101562 229.644531 211.910156 C 225.8125 208.484375 221.980469 205.054688 218.148438 201.625 C 216.828125 200.441406 214.867188 202.390625 216.195312 203.578125 Z M 228.183594 172.28125 C 235.289062 173.679688 242.261719 175.519531 249.136719 177.808594 C 250.824219 178.375 251.550781 175.710938 249.867188 175.148438 C 242.996094 172.859375 236.023438 171.019531 228.917969 169.621094 C 227.179688 169.277344 226.4375 171.9375 228.183594 172.28125 Z M 226.941406 140.113281 C 231.234375 138.621094 235.527344 137.125 239.816406 135.628906 C 241.484375 135.046875 240.765625 132.382812 239.082031 132.96875 C 234.789062 134.464844 230.5 135.957031 226.207031 137.457031 C 224.542969 138.035156 225.257812 140.703125 226.941406 140.113281 Z M 226.507812 86.226562 C 227.324219 85.554688 228.136719 84.878906 228.949219 84.203125 C 229.523438 83.726562 229.441406 82.746094 228.949219 82.253906 C 228.382812 81.6875 227.570312 81.777344 226.996094 82.253906 C 226.183594 82.929688 225.371094 83.601562 224.554688 84.277344 C 223.980469 84.753906 224.0625 85.734375 224.554688 86.226562 C 225.125 86.792969 225.933594 86.703125 226.507812 86.226562 Z M 200.8125 107.597656 C 206.402344 102.40625 212.242188 97.515625 218.351562 92.941406 C 219.753906 91.886719 218.378906 89.492188 216.957031 90.558594 C 210.660156 95.273438 204.621094 100.292969 198.859375 105.644531 C 197.554688 106.855469 199.507812 108.804688 200.8125 107.597656 Z M 168.378906 94.574219 C 168.109375 96.328125 165.445312 95.582031 165.714844 93.84375 C 166.566406 88.402344 167.414062 82.960938 168.261719 77.519531 C 168.535156 75.769531 171.195312 76.515625 170.925781 78.253906 C 170.078125 83.691406 169.230469 89.132812 168.378906 94.574219 "/>
</g>
</svg>
